<svg id="Layer_1" data-name="Layer 1"
  xmlns="http://www.w3.org/2000/svg" viewBox="0 0 2267.72 850.39">
  <path fill="#4c5c73" d="M275.9,438.87l-34.35,62.39,56.22-25.53Z"/>
  <path fill="#4c5c73" d="M280,433.78,303.18,472l44.32-82.3Z"/>
  <path fill="#4c5c73" d="M374.29,279.31,286.55,421.55l67.14-44.44Z"/>
  <path fill="#4c5c73" d="M383.25,269.72,359.59,374.44l91.69-31.3Z"/>
  <path fill="#4c5c73" d="M359.82,381.88,451,349.62,394.34,489.89Z"/>
  <path fill="#4c5c73" d="M456,356.19,398.68,496.12l87,3.66Z"/>
  <path fill="#4c5c73" d="M400.58,502.6l59.87,76.55,24.15-73.37Z"/>
  <path fill="#4c5c73" d="M396.79,507.73l-6.77,149,67.81-71.23Z"/>
  <path fill="#4c5c73" d="M390.41,512.82l-50.9,100.81,44.61,43.84Z"/>
  <path fill="#4c5c73" d="M339.52,622.54l1.89,43.65L379.6,662Z"/>
  <path fill="#4c5c73" d="M293.61,608.85,333.13,617l2.12,43.92Z"/>
  <path fill="#4c5c73" d="M285,608.14l-33.34,17.74L327.49,662Z"/>
  <path fill="#4c5c73" d="M260.94,547.2l-12.37,73.15,33.49-17.81Z"/>
  <path fill="#4c5c73" d="M387.92,264.34l60.74,67.15-24.47-70.58Z"/>
  <path fill-rule="evenodd" d="M821.91,528.76l-3.45,78.16,63.45,10.14Z"/>
  <path fill="white" d="M662.63,514.86l-1.22,113,99.47-30.09Z"/>
  <path fill="white" d="M670.34,513.5l86.56,72.34-22.18-61.3Z"/>
  <path fill="white" d="M668.26,632.25l94.67-26.88-16.17,55.71Z"/>
  <path fill="white" d="M668.17,506.86l100.58-56.43-33.2,67.87Z"/>
  <path fill="white" d="M703.92,375.48,664.46,502.42l106.49-59Z"/>
  <path fill="white" d="M708,370.37l165.83-95.6L775.56,440.14Z"/>
  <path fill="white" d="M809.61,135.86,708.52,362.58,878,265.48Z"/>
  <path fill="white" d="M769.52,602.84l-16,53.09,55.72-44.46Z"/>
  <path fill="white" d="M815.27,530.24l-42.68,67.37,40.23,9Z"/>
  <path fill="white" d="M812.43,130.26l67.89,127.3L914.15,70.91Z"/>
  <path fill="white" d="M873.34,11.22l-57,110.21,97.94-57.74Z"/>
  <path fill="white" d="M877.91,7.67,921.46,0l-5.34,57.41Z"/>
  <path fill="white" d="M926.94,4.62l-5.82,58L979,82.83Z"/>
  <path fill="white" d="M920.62,68,887.46,250.88,982.59,89.81Z"/>
  <path fill="white" d="M821,528.64l-3,78.82,62.79,9.38Z"/>
  <path fill="white" d="M819.84,613.39l13.77,33.86,45.08-25Z"/>
  <path fill="white" d="M828.61,529.21l54.65,80.64,7.21-43.07Z"/>
  <path fill="white" d="M831.89,524.32l60.37,36.88,14.31-27.5Z"/>
  <path fill="white" d="M826.25,517.63,871,485.15l32.48,42.68Z"/>
  <path fill="white" d="M859.19,418.2,824.4,511.47l44.36-31.42Z"/>
  <path fill="white" d="M863.3,408.24l10.24,67.52L988.48,375.3Z"/>
  <path fill="white" d="M875.43,481.8l113.05-99L909.71,526.44Z"/>
  <path fill="white" d="M963.6,314.82l-93.16,85.86,125-32.51Z"/>
  <path fill="white" d="M906.67,312.5l50.38.32L869,394.29Z"/>
  <path fill="white" d="M887.27,623.88,843,648.05l84.39.68Z"/>
  <path fill="white" d="M931.39,608.48,894,621.43l40.81,25.05Z"/>
  <path fill="white" d="M937,608.16l3.78,39.9,94.94-23.29Z"/>
  <path fill="white" d="M945.8,652.93l98-23.92-38.13,58.8Z"/>
  <path fill="white" d="M942.08,657.07l60,35.74-44.72,63.47Z"/>
  <path fill="white" d="M936.82,660.41,886.92,750l65.6,10.79Z"/>
  <path fill="white" d="M884.13,755.3l-62.81,51.35L944,764.93Z"/>
  <path fill="white" d="M814.86,814.81,944,770.75l-73.74,67.69Z"/>
  <path fill="white" d="M807.56,818.4l51.21,22.16-72.07,9.6Z"/>
  <path fill="white" d="M1028.67,446.58,943.75,592.72l108.42-84.21Z"/>
  <path fill="white" d="M1055.24,513.31l-108.37,84,130.26-37.67Z"/>
  <path fill="white" d="M946.2,604.16l128.94-38.73-26.31,56.64Z"/>
  <path fill="white" d="M1033.71,445.22l23.89,60.2,57.22-32Z"/>
  <path fill="white" d="M1059.52,510.87,1114.89,480l-34.58,74.72Z"/>
  <path fill="white" d="M1057.64,372.89l-25.1,65.85,82.8,29.2Z"/>
  <path fill="white" d="M1063,369.62,1121,467.16l36.78-88Z"/>
  <path fill="white" d="M1079,322.62l-17.64,41.32,89.6,8.3Z"/>
  <path fill="white" d="M1085.43,319.79l67.31,47.11-30.13-53.14Z"/>
  <path fill="white" d="M1051.11,626.8l79.58-15.36L1015.15,683Z"/>
  <path fill="white" d="M1152.84,523.54,1058.27,620l85.27-16.52Z"/>
  <path fill="white" d="M1159.29,518.35l-10,76.58,53.46-73.78Z"/>
  <path fill="white" d="M1189,459.55l-27.75,53.15,42.88,3.32Z"/>
  <path fill="white" d="M1193.3,453.69l15.89,60.67,135-83.1Z"/>
  <path fill="white" d="M1269.67,386.21l-68.07,58.44,146.55-19.27Z"/>
  <path fill="white" d="M1271.76,380.93l97.68-62.82L1355.81,423Z"/>
  <path fill="white" d="M1375.39,316.09l-14.06,105.82,129.4-61.84Z"/>
  <path fill="white" d="M1380.29,312.25l84.82-45.09,28.36,88.49Z"/>
  <path fill="white" d="M1364,426.68l127-60.57-55.87,98Z"/>
  <path fill="white" d="M1357.11,432.13l72.52,35.78-93.42,58Z"/>
  <path fill="white" d="M1350.05,439l-70.71,86.42,35.84,71.14Z"/>
  <path fill="white" d="M1275.89,530.11l-62.17,92.78,98.5-19.64Z"/>
  <path fill="white" d="M1336.07,531.39,1319,602.27l130-5.45Z"/>
  <path fill="white" d="M1330.45,609.19l174.26-9.53-64.33,60Z"/>
  <path fill="white" d="M1512.45,498.94l-54.54,97.82,61.66-2.81Z"/>
  <path fill="white" d="M1517.81,493.87l6.74,98.41,87.78-53.8Z"/>
  <path fill="white" d="M1525.75,596.83l87.32-52.45-9.16,115.2Z"/>
  <path fill="white" d="M1618.24,552.22l-9.38,111.25,78.68,34.22Z"/>
  <path fill="white" d="M1520.62,489.43l154-63.33-57.07,108.79Z"/>
  <path fill="white" d="M1668.16,306.61,1523.57,482.44l155.18-63.91Z"/>
  <path fill="white" d="M1673.37,303.39l9.51,112.15,104.9-82.12Z"/>
  <path fill="white" d="M1684.74,300.53l121.12-13.9L1791,329.82Z"/>
  <path fill="white" d="M1811.74,287.58l-14.46,40.11,56.13-16.24Z"/>
  <path fill="white" d="M1795.63,334.22,1854.78,317l-51.27,92.34Z"/>
  <path fill="white" d="M1858.48,321.45l-51.4,93.36,62.48-23.54Z"/>
  <path fill="white" d="M1802.94,422.17l60-22-73.46,94.42Z"/>
  <path fill="white" d="M1797,426.42l-90.62,64.14,75.19,13.67Z"/>
  <path fill="white" d="M1679.07,652.16l74.7-20.69-1.6,51.43Z"/>
  <path fill="white" d="M1778.1,620.07l-1.51,50.28,70.75-53.64Z"/>
  <path fill="white" d="M1891.86,484.88l-75.8,97.22,77.27-24.45Z"/>
  <path fill="white" d="M628.58,455.45,509.51,484.59l119,36.54Z"/>
</svg>